<?xml version="1.0" encoding="UTF-8"?>
<!DOCTYPE svg PUBLIC "-//W3C//DTD SVG 1.1//EN" "http://www.w3.org/Graphics/SVG/1.1/DTD/svg11.dtd">
<svg xmlns="http://www.w3.org/2000/svg" version="1.1" viewBox="0 0 221 221" stroke="none">
	<rect width="100%" height="100%" fill="#ffffff"/>
	<path d="M100,100h7v1h-7z M108,100h4v1h-4z M114,100h7v1h-7z M100,101h1v6h-1z M106,101h1v6h-1z M110,101h1v1h-1z M112,101h1v1h-1z M114,101h1v6h-1z M120,101h1v6h-1z M102,102h3v3h-3z M109,102h1v1h-1z M111,102h1v2h-1z M116,102h3v3h-3z M108,103h1v1h-1z M112,103h1v1h-1z M110,104h1v1h-1z M109,105h1v1h-1z M112,105h1v3h-1z M101,106h5v1h-5z M108,106h1v1h-1z M110,106h1v1h-1z M115,106h5v1h-5z M109,107h1v6h-1z M111,107h1v3h-1z M102,108h1v3h-1z M104,108h2v3h-2z M106,108h1v1h-1z M108,108h1v1h-1z M113,108h1v3h-1z M117,108h1v2h-1z M120,108h1v2h-1z M100,109h1v1h-1z M103,109h1v4h-1z M110,109h1v2h-1z M112,109h1v1h-1z M115,109h1v4h-1z M101,110h1v1h-1z M106,110h1v1h-1z M108,110h1v2h-1z M118,110h1v1h-1z M100,111h1v2h-1z M104,111h1v2h-1z M111,111h1v1h-1z M114,111h1v2h-1z M116,111h2v1h-2z M120,111h1v2h-1z M101,112h2v1h-2z M105,112h2v1h-2z M110,112h1v1h-1z M112,112h1v1h-1z M118,112h2v2h-2z M108,113h1v1h-1z M100,114h7v1h-7z M110,114h4v1h-4z M116,114h1v1h-1z M119,114h1v2h-1z M100,115h1v6h-1z M106,115h1v6h-1z M108,115h2v1h-2z M111,115h1v3h-1z M113,115h2v1h-2z M118,115h1v2h-1z M102,116h3v3h-3z M108,116h1v1h-1z M110,116h1v3h-1z M116,116h1v1h-1z M120,116h1v1h-1z M109,117h1v3h-1z M112,117h4v1h-4z M117,117h1v4h-1z M119,117h1v1h-1z M108,118h1v1h-1z M112,118h1v3h-1z M115,118h1v3h-1z M118,118h1v1h-1z M120,118h1v1h-1z M111,119h1v2h-1z M116,119h1v1h-1z M101,120h5v1h-5z M114,120h1v1h-1z M118,120h1v1h-1z M120,120h1v1h-1z" fill="#000000"/>
</svg>
